# xmcd CD database file
#
# Track frame offsets:
#	150
#	11291
#	25144
#	35688
#	45740
#	58390
#	68583
#	78477
#	88228
#	97689
#	108208
#	119684
#	132188
#	144778
#	154449
#	166738
#
# Disc length: 2379 seconds
#
# Revision: 2
# Processed by: cddbd v1.5.1PL0 Copyright (c) Steve Scherf et al.
# Submitted via: CDex 1.51
#
DISCID=cb094910
DTITLE=Chuck Berry - Blues
DYEAR=1963
DGENRE=Blues
TTITLE0=House Of Blue Lights
TTITLE1=Wee Wee Hours
TTITLE2=Deep Feeling
TTITLE3=I Just Want To Make Love To You
TTITLE4=How You've Changed
TTITLE5=Down The Road Apiece
TTITLE6=Worried Life Blues
TTITLE7=Confessin' The Blues
TTITLE8=Still Got The Blues
TTITLE9=Driftin' Blues
TTITLE10=Run Around
TTITLE11=Route 66
TTITLE12=Sweet Sixteen
TTITLE13=All Aboard
TTITLE14=The Things I Used To Do
TTITLE15=St. Louis Blues
EXTD=YEAR: 1963
EXTT0=
EXTT1=
EXTT2=
EXTT3=
EXTT4=
EXTT5=
EXTT6=
EXTT7=
EXTT8=
EXTT9=
EXTT10=
EXTT11=
EXTT12=
EXTT13=
EXTT14=
EXTT15=
PLAYORDER=
